<svg preserveAspectRatio="none" overflow="visible" style="display: block;" width="97.2642" height="28.159" viewBox="0 0 97.2642 28.159" fill="none" xmlns="http://www.w3.org/2000/svg">
<g id="Group">
<path id="Vector" d="M79.978 13.4629L73.388 19.6219L73.379 26.9253L79.9691 20.8441L79.978 13.4629Z" fill="#63BB47"/>
<path id="Vector_2" d="M86.5812 0L79.9882 6.15905L79.9787 13.4624L86.5687 7.37828L86.5812 0Z" fill="#63BB47"/>
<path id="Vector_3" d="M95.8607 1.24318H97.2642V10.9281L79.9507 28.159V20.8526L95.7151 5.11057C96.2253 4.57889 96.5087 3.88019 96.5099 3.1544C96.5624 1.84231 96.2468 1.61464 95.8607 1.25516" fill="#63BB47"/>
<path id="Vector_4" d="M3.0416 4.9575H0V2.94141H8.66114V4.9575H5.58554V13.558H3.0416V4.9575Z" fill="#8C9197"/>
<path id="Vector_5" d="M11.7675 10.8349L10.9669 13.558H8.3457L11.7675 2.94141H15.1121L18.6235 13.558H15.8632L14.9977 10.8349H11.7675ZM14.6268 9.03753L13.9251 6.78782C13.7242 6.15574 13.5263 5.37085 13.3594 4.74176H13.3254C13.1554 5.37085 12.9885 6.17369 12.8061 6.78782L12.1353 9.03753H14.6268Z" fill="#8C9197"/>
<path id="Vector_6" d="M20.5312 11.0842C21.4099 11.5072 22.3753 11.7334 23.3564 11.7463C24.5248 11.7463 25.1461 11.2909 25.1461 10.5989C25.1461 9.90693 24.6113 9.55644 23.2574 9.10111C21.3812 8.47501 20.1448 7.49544 20.1448 5.95268C20.1448 4.14031 21.7645 2.76832 24.4104 2.76832C25.3976 2.74084 26.3789 2.9239 27.2851 3.30454L26.7164 5.24273C25.9855 4.90602 25.1856 4.73397 24.3764 4.73943C23.2729 4.73943 22.7381 5.22473 22.7381 5.76099C22.7381 6.43799 23.3564 6.74057 24.8277 7.25877C26.8184 7.95376 27.7364 8.93334 27.7364 10.4282C27.7364 12.2076 26.299 13.7234 23.2049 13.7234C22.1035 13.7309 21.0137 13.505 20.0118 13.0613L20.5312 11.0842Z" fill="#8C9197"/>
<path id="Vector_7" d="M32.2861 2.66012C31.7951 4.14764 31.1259 5.57435 30.2923 6.91092L28.7468 7.05172C29.2628 5.67052 29.6527 4.24815 29.9121 2.80091L32.2861 2.66012Z" fill="#8C9197"/>
<path id="Vector_8" d="M36.4805 2.94156V7.02166H40.675V2.94156H43.219V13.5581H40.675V9.11556H36.4805V13.5581H33.9397V2.94156H36.4805Z" fill="#8C9197"/>
<path id="Vector_9" d="M52.4799 9.06766H48.3348V11.59H52.9652V13.5581H45.7939V2.94156H52.7303V4.90969H48.3348V7.11448H52.4799V9.06766Z" fill="#8C9197"/>
<path id="Vector_10" d="M61.744 9.06766H57.596V11.59H62.2298V13.5581H55.0582V2.94156H61.9917V4.90969H57.596V7.11448H61.744V9.06766Z" fill="#8C9197"/>
<path id="Vector_11" d="M64.3184 2.94141H66.8591V11.5419H71.338V13.558H64.3184V2.94141Z" fill="#8C9197"/>
<path id="Vector_12" d="M30.9727 20.6877V26.679H29.2819V20.6877H28.4535V19.6722H29.2819V18.8244C29.2603 18.4838 29.3183 18.1429 29.4516 17.827C29.5848 17.5111 29.7899 17.2284 30.0516 17C30.5647 16.5747 31.288 16.4009 32.1906 16.4668V17.4824C31.8769 17.4769 31.5695 17.5681 31.3127 17.743C31.084 17.9077 30.9727 18.2163 30.9727 18.6686V19.6722H32.1906V20.6877H30.9727Z" fill="#63BB47"/>
<path id="Vector_13" d="M35.2754 17.6747C35.2766 17.7797 35.2537 17.8837 35.2082 17.979C35.1627 18.0744 35.096 18.1587 35.0127 18.2259C34.8263 18.3731 34.5932 18.4535 34.3527 18.4535C34.1123 18.4535 33.8792 18.3731 33.6928 18.2259C33.6073 18.16 33.5384 18.0762 33.4912 17.9806C33.4441 17.8852 33.42 17.7806 33.4208 17.6747C33.4188 17.5661 33.4422 17.4584 33.4893 17.3598C33.5365 17.2613 33.606 17.1743 33.6928 17.1055C33.8792 16.9583 34.1123 16.8779 34.3527 16.8779C34.5932 16.8779 34.8263 16.9583 35.0127 17.1055C35.097 17.1758 35.1644 17.2632 35.2098 17.3616C35.2552 17.46 35.2776 17.5669 35.2754 17.6747ZM33.5042 26.6916V19.6728H35.192V26.6916H33.5042Z" fill="#63BB47"/>
<path id="Vector_14" d="M41.2409 26.6908V21.727C41.2417 21.5841 41.2208 21.4418 41.1791 21.3047C41.1406 21.1639 41.0674 21.0344 40.9658 20.9272C40.8515 20.8106 40.7122 20.7196 40.5578 20.6606C40.3474 20.5847 40.1238 20.549 39.8994 20.5557C39.6745 20.5512 39.4497 20.5693 39.2287 20.6097C39.0609 20.6424 38.8964 20.6896 38.7372 20.7505V26.6908H37.0494V20.0495C37.4443 19.8771 37.8596 19.7524 38.2859 19.678C38.8374 19.5794 39.3974 19.5333 39.9581 19.5402C40.4315 19.5299 40.9036 19.5895 41.3584 19.7169C41.6931 19.8114 42.0037 19.9726 42.2703 20.1903C42.491 20.3765 42.6618 20.612 42.7679 20.8762C42.8711 21.1352 42.9235 21.4105 42.9225 21.6881V26.6908H41.2409Z" fill="#63BB47"/>
<path id="Vector_15" d="M48.9785 26.6761C48.4638 26.777 47.9396 26.8252 47.4144 26.8199C46.3841 26.8199 45.6206 26.6332 45.124 26.2597C44.8763 26.0757 44.6783 25.8362 44.5469 25.5617C44.4155 25.2874 44.3547 24.9862 44.3697 24.684C44.3547 24.2753 44.4713 23.8722 44.7036 23.5307C44.936 23.2099 45.2445 22.9479 45.6031 22.7668C46.0196 22.5589 46.4637 22.4077 46.923 22.3174C47.4561 22.2114 47.9947 22.1334 48.5365 22.0838V21.7153C48.5427 21.521 48.5047 21.3277 48.4252 21.1492C48.3578 21.0043 48.2509 20.8801 48.1161 20.7897C47.9763 20.6989 47.8183 20.6376 47.6524 20.6099C47.4489 20.5712 47.2417 20.5531 47.0343 20.556C46.6851 20.5541 46.3375 20.6005 46.0018 20.6938C45.7148 20.7719 45.4347 20.872 45.1642 20.9934L44.7777 20.0947C45.107 19.9527 45.447 19.8355 45.7947 19.7442C46.2986 19.6138 46.8188 19.5523 47.3402 19.5615C47.7037 19.5594 48.066 19.6006 48.419 19.6843C48.7411 19.752 49.0453 19.8836 49.3124 20.0707C49.5685 20.2699 49.7702 20.5271 49.8996 20.8196C50.0534 21.1812 50.1271 21.57 50.116 21.961V26.3136C49.7545 26.4813 49.3722 26.6032 48.9785 26.6761ZM48.5303 22.8477C48.1694 22.8858 47.8113 22.9448 47.4577 23.0244C47.1738 23.0846 46.9009 23.1855 46.6479 23.324C46.4343 23.4479 46.2575 23.6234 46.1347 23.8333C46.0071 24.0791 45.9455 24.3521 45.9555 24.6271C45.9372 24.8135 45.9649 25.0015 46.0364 25.1755C46.1079 25.3494 46.2211 25.5044 46.3666 25.6276C46.7072 25.8485 47.1137 25.9539 47.5227 25.9272C47.7084 25.9291 47.8939 25.912 48.0759 25.8763C48.2345 25.8488 48.3884 25.8004 48.5334 25.7325L48.5303 22.8477Z" fill="#63BB47"/>
<path id="Vector_16" d="M56.1088 26.6907V21.7269C56.1085 21.5839 56.0866 21.4416 56.0439 21.3046C56.0054 21.1639 55.9322 21.0344 55.8306 20.9271C55.7153 20.8138 55.5762 20.7259 55.4226 20.6695C55.2123 20.5933 54.9886 20.5577 54.7642 20.5647C54.5393 20.5603 54.3145 20.5783 54.0935 20.6185C53.9257 20.6514 53.7612 20.6985 53.602 20.7593V26.6907H51.9297V20.0494C52.3248 19.8774 52.74 19.7527 53.1661 19.6779C53.7187 19.5794 54.2798 19.5332 54.8415 19.5402C55.3138 19.5301 55.7849 19.5896 56.2386 19.7169C56.5788 19.8094 56.8948 19.9707 57.166 20.1902C57.3875 20.3764 57.5594 20.6117 57.6667 20.8762C57.7621 21.1366 57.8082 21.4116 57.8027 21.688V26.6907H56.1088Z" fill="#63BB47"/>
<path id="Vector_17" d="M63.366 26.6758C63.0098 26.7819 62.6381 26.8305 62.2657 26.8196C61.86 26.8248 61.4578 26.7397 61.0914 26.571C60.7298 26.4044 60.4123 26.1594 60.1641 25.855C59.8861 25.5144 59.676 25.1262 59.5458 24.7107C59.3925 24.2081 59.3185 23.686 59.3263 23.1619C59.318 22.6363 59.3953 22.1126 59.555 21.6102C59.6838 21.1977 59.8938 20.8132 60.1731 20.4779C60.4297 20.1814 60.7501 19.9436 61.1129 19.7815C61.4751 19.6194 61.8701 19.537 62.2687 19.5402C62.6446 19.5265 63.0194 19.5793 63.3756 19.696C63.5982 19.7726 63.807 19.8828 63.9938 20.0225L63.6352 20.9212C63.514 20.8338 63.381 20.7632 63.2395 20.7115C63.0456 20.6464 62.8415 20.616 62.6369 20.6216C62.3785 20.6141 62.1231 20.6752 61.8981 20.7984C61.6863 20.9184 61.5109 21.0911 61.3909 21.2986C61.2501 21.5462 61.1523 21.8143 61.1004 22.0925C61.0329 22.4361 61.0013 22.7853 61.0049 23.135C60.9721 23.7769 61.1129 24.416 61.4124 24.9893C61.5252 25.2011 61.6977 25.3777 61.9089 25.4991C62.1207 25.6204 62.363 25.6815 62.6088 25.6753C62.8093 25.6794 63.0092 25.6501 63.1996 25.5884C63.3517 25.5362 63.4937 25.4592 63.6196 25.3607L64.0063 26.3373C63.816 26.4874 63.5994 26.6021 63.366 26.6758Z" fill="#63BB47"/>
<path id="Vector_18" d="M66.6825 23.7585C66.8186 25.0606 67.497 25.7126 68.7167 25.7146C69.092 25.7214 69.4662 25.6791 69.8296 25.5888C70.0939 25.523 70.3517 25.4338 70.5993 25.3221L71.0009 26.3257C70.6823 26.4815 70.3445 26.5991 69.9966 26.6762C69.5175 26.78 69.0282 26.8283 68.5377 26.82C68.0723 26.8431 67.6074 26.7716 67.1724 26.6101C66.7374 26.4486 66.3424 26.2007 66.0118 25.8823C65.3936 25.2553 65.0846 24.3486 65.0846 23.1623C65.0762 22.644 65.1514 22.1275 65.3071 21.6315C65.4384 21.2136 65.655 20.8255 65.9438 20.4902C66.2123 20.1775 66.5536 19.9311 66.9391 19.7712C67.358 19.6042 67.8067 19.5216 68.259 19.5286C69.2579 19.5286 70.0121 19.8282 70.5313 20.4273C71.0504 21.0264 71.2855 21.9251 71.2485 23.1234L66.6825 23.7585ZM69.2919 20.9695C69.1601 20.8154 68.9936 20.6934 68.8044 20.6132C68.6153 20.5331 68.4094 20.4971 68.2035 20.5082C67.9684 20.504 67.7363 20.5565 67.5275 20.661C67.3186 20.7657 67.1396 20.919 67.0071 21.1073C66.7064 21.5067 66.5656 22.1228 66.5841 22.9556L69.675 22.5122C69.672 21.7993 69.5485 21.287 69.2919 20.9695Z" fill="#63BB47"/>
</g>
</svg>
