<svg preserveAspectRatio="none" width="100%" height="100%" overflow="visible" style="display: block;" viewBox="0 0 103 22" fill="none" xmlns="http://www.w3.org/2000/svg">
<g id="Levels">
<path id="Cellular Connection" fill-rule="evenodd" clip-rule="evenodd" d="M31.8651 6.53302C31.8651 5.89998 31.3876 5.38679 30.7985 5.38679H29.7318C29.1427 5.38679 28.6651 5.89998 28.6651 6.53302V16.467C28.6651 17.1 29.1427 17.6132 29.7318 17.6132H30.7985C31.3876 17.6132 31.8651 17.1 31.8651 16.467V6.53302ZM24.431 7.83207H25.4977C26.0868 7.83207 26.5644 8.35757 26.5644 9.00581V16.4395C26.5644 17.0877 26.0868 17.6132 25.4977 17.6132H24.431C23.8419 17.6132 23.3644 17.0877 23.3644 16.4395V9.00581C23.3644 8.35757 23.8419 7.83207 24.431 7.83207ZM20.0993 10.4811H19.0326C18.4435 10.4811 17.9659 11.0133 17.9659 11.6698V16.4245C17.9659 17.081 18.4435 17.6132 19.0326 17.6132H20.0993C20.6884 17.6132 21.1659 17.081 21.1659 16.4245V11.6698C21.1659 11.0133 20.6884 10.4811 20.0993 10.4811ZM14.7985 12.9264H13.7318C13.1427 12.9264 12.6651 13.451 12.6651 14.0981V16.4415C12.6651 17.0886 13.1427 17.6132 13.7318 17.6132H14.7985C15.3876 17.6132 15.8651 17.0886 15.8651 16.4415V14.0981C15.8651 13.451 15.3876 12.9264 14.7985 12.9264Z" fill="var(--fill-0, black)"/>
<path id="Wifi" fill-rule="evenodd" clip-rule="evenodd" d="M47.4365 7.80213C49.9236 7.80223 52.3156 8.72432 54.1181 10.3778C54.2538 10.5055 54.4708 10.5038 54.6045 10.3742L55.9019 9.11072C55.9696 9.04496 56.0074 8.95588 56.0068 8.8632C56.0063 8.77052 55.9674 8.68188 55.899 8.61688C51.1679 4.24217 43.7042 4.24217 38.9732 8.61688C38.9047 8.68183 38.8658 8.77045 38.8652 8.86313C38.8645 8.95581 38.9022 9.04491 38.9698 9.11072L40.2677 10.3742C40.4013 10.504 40.6184 10.5056 40.7541 10.3778C42.5568 8.72421 44.9491 7.80212 47.4365 7.80213ZM47.4331 12.0224C48.7904 12.0223 50.0993 12.5341 51.1054 13.4582C51.2415 13.5893 51.4559 13.5865 51.5885 13.4518L52.8758 12.1325C52.9436 12.0633 52.9812 11.9694 52.9802 11.8718C52.9793 11.7743 52.9398 11.6812 52.8706 11.6134C49.8068 8.72257 45.062 8.72257 41.9982 11.6134C41.929 11.6812 41.8895 11.7743 41.8886 11.8719C41.8877 11.9695 41.9254 12.0634 41.9934 12.1325L43.2803 13.4518C43.4129 13.5865 43.6273 13.5893 43.7634 13.4582C44.7688 12.5347 46.0767 12.023 47.4331 12.0224ZM49.9575 14.816C49.9594 14.9213 49.9224 15.0229 49.8551 15.0967L47.6784 17.5514C47.6146 17.6236 47.5276 17.6642 47.4369 17.6642C47.3461 17.6642 47.2591 17.6236 47.1953 17.5514L45.0183 15.0967C44.951 15.0228 44.914 14.9212 44.916 14.8159C44.918 14.7105 44.9588 14.6108 45.0288 14.5401C46.4189 13.2262 48.4548 13.2262 49.8449 14.5401C49.9149 14.6108 49.9556 14.7106 49.9575 14.816Z" fill="var(--fill-0, black)"/>
<g id="Battery">
<rect id="Border" opacity="0.35" x="63.5068" y="5.5" width="24" height="12" rx="3.8" stroke="var(--stroke-0, black)"/>
<path id="Cap" opacity="0.4" d="M89.0068 9.78113V13.8566C89.8116 13.5114 90.3349 12.7085 90.3349 11.8189C90.3349 10.9293 89.8116 10.1263 89.0068 9.78113" fill="var(--fill-0, black)"/>
<rect id="Capacity" x="65.0068" y="7" width="21" height="9" rx="2.5" fill="var(--fill-0, black)"/>
</g>
</g>
</svg>
