<svg preserveAspectRatio="none" width="100%" height="100%" overflow="visible" style="display: block;" viewBox="0 0 26 26" fill="none" xmlns="http://www.w3.org/2000/svg">
<g id="card">
<path id="Vector" d="M23.8333 10.0208H2.16667C1.7225 10.0208 1.35417 9.6525 1.35417 9.20833C1.35417 8.76417 1.7225 8.39583 2.16667 8.39583H23.8333C24.2775 8.39583 24.6458 8.76417 24.6458 9.20833C24.6458 9.6525 24.2775 10.0208 23.8333 10.0208Z" fill="var(--fill-0, #030712)"/>
<path id="Vector_2" d="M8.66667 18.6875H6.5C6.05583 18.6875 5.6875 18.3192 5.6875 17.875C5.6875 17.4308 6.05583 17.0625 6.5 17.0625H8.66667C9.11083 17.0625 9.47917 17.4308 9.47917 17.875C9.47917 18.3192 9.11083 18.6875 8.66667 18.6875Z" fill="var(--fill-0, #030712)"/>
<path id="Vector_3" d="M15.7083 18.6875H11.375C10.9308 18.6875 10.5625 18.3192 10.5625 17.875C10.5625 17.4308 10.9308 17.0625 11.375 17.0625H15.7083C16.1525 17.0625 16.5208 17.4308 16.5208 17.875C16.5208 18.3192 16.1525 18.6875 15.7083 18.6875Z" fill="var(--fill-0, #030712)"/>
<path id="Vector_4" d="M19.0233 23.0208H6.97667C2.665 23.0208 1.35417 21.7208 1.35417 17.4525V8.5475C1.35417 4.27917 2.665 2.97917 6.97667 2.97917H19.0125C23.3242 2.97917 24.635 4.27917 24.635 8.5475V17.4417C24.6458 21.7208 23.335 23.0208 19.0233 23.0208ZM6.97667 4.60417C3.575 4.60417 2.97917 5.18917 2.97917 8.5475V17.4417C2.97917 20.8 3.575 21.385 6.97667 21.385H19.0125C22.4142 21.385 23.01 20.8 23.01 17.4417V8.5475C23.01 5.18917 22.4142 4.60417 19.0125 4.60417H6.97667Z" fill="var(--fill-0, #292D32)"/>
<g id="Vector_5" opacity="0">
</g>
</g>
</svg>
