<svg preserveAspectRatio="xMidYMid meet" width="100%" height="100%" overflow="visible" style="display: block;" viewBox="0 0 30 30" fill="none" xmlns="http://www.w3.org/2000/svg">
<g id="apple-pay">
<path id="Vector" d="M4.005 11.0675C4.5675 11.115 5.13 10.7825 5.4825 10.3587C5.82875 9.92625 6.0575 9.34 6.00125 8.75C5.5 8.77375 4.88625 9.0825 4.535 9.51625C4.21 9.88625 3.93375 10.4963 4.005 11.0675ZM2.6125 18.8075C3.235 18.7837 3.48 18.3987 4.23 18.3987C4.985 18.3987 5.205 18.8075 5.86125 18.7987C6.54125 18.785 6.9675 18.1812 7.38375 17.5612C7.85625 16.8575 8.05375 16.1763 8.06375 16.1388C8.05 16.125 6.75125 15.62 6.73625 14.0975C6.7225 12.8225 7.76375 12.2175 7.80875 12.18C7.2225 11.295 6.30875 11.2 5.99 11.1762L5.9925 11.1775C5.17625 11.1288 4.47875 11.6475 4.09375 11.6475C3.7 11.6475 3.11 11.2 2.4625 11.2137C1.625 11.2287 0.84625 11.71 0.42 12.475C-0.46125 14.0112 0.19 16.2812 1.0425 17.5325C1.46 18.15 1.95625 18.8312 2.6125 18.8075ZM17.8125 13.9838H19.0925C19.2 13.4125 19.72 13.0362 20.4338 13.0362C21.3013 13.0362 21.7888 13.445 21.7888 14.2013V14.715L20.0175 14.825C18.3725 14.925 17.4813 15.61 17.4813 16.7988C17.4863 17.9975 18.4038 18.7963 19.7213 18.7975C20.6125 18.7975 21.4375 18.3412 21.8112 17.6137H21.8388V18.7275H23.1513V14.1125C23.1513 12.7762 22.0962 11.91 20.475 11.91C18.97 11.91 17.8563 12.7838 17.8125 13.9838ZM21.7937 16.2162C21.7937 17.0825 21.0662 17.7 20.1062 17.7C19.3512 17.7 18.8688 17.3287 18.8688 16.7675C18.8688 16.1812 19.3325 15.845 20.2187 15.7925L21.7937 15.6925V16.2162ZM10.6975 9.45375V18.7262H12.1175V15.5575H14.0813C15.8763 15.5575 17.1325 14.3062 17.1325 12.4987C17.1325 10.6912 15.8963 9.45375 14.1275 9.45375H10.6975ZM15.69 12.5038C15.69 13.6738 14.9875 14.35 13.7488 14.35H12.1175V10.6675H13.7538C14.9863 10.6675 15.69 11.3325 15.69 12.5038Z" fill="var(--fill-0, black)"/>
<path id="Vector_2" d="M19.7237 18.7988H19.7227H19.7237Z" fill="var(--fill-0, black)"/>
<path id="Vector_3" d="M26.857 17.4745L25.1883 11.9995H23.707L26.107 18.7508L25.9758 19.1595C25.7595 19.8533 25.4083 20.1258 24.7808 20.1258C24.6683 20.1258 24.4533 20.112 24.3633 20.102V21.2158C24.4483 21.2358 24.8008 21.2495 24.9083 21.2495L24.907 21.247C26.2895 21.247 26.9408 20.7095 27.5095 19.087L29.9983 11.9995H28.5545L26.8858 17.4745H26.857Z" fill="var(--fill-0, black)"/>
</g>
</svg>
