<svg preserveAspectRatio="none" width="100%" height="100%" overflow="visible" style="display: block;" viewBox="0 0 15.8333 15.8333" fill="none" xmlns="http://www.w3.org/2000/svg">
<g id="Vector">
<path d="M9.85417 14.0265C9.57163 14.5871 9.38486 15.1954 9.31331 15.8333L15.2925 14.6961C15.575 14.1357 15.7616 13.5272 15.8333 12.8893L9.85417 14.0265Z" fill="var(--fill-0, #3EFF00)"/>
<path d="M15.2925 11.2891C15.575 10.7287 15.7618 10.1202 15.8333 9.48231L11.1758 10.3686V8.6648L15.2923 7.88207C15.5749 7.32165 15.7616 6.71322 15.8332 6.07529L11.1756 6.96085V0.833386C10.4619 1.19192 9.82812 1.66917 9.3129 2.23211V7.31522L7.45018 7.66947V0C6.7365 0.358408 6.10268 0.835781 5.58746 1.39872V8.0236L1.41961 8.81603C1.13707 9.37645 0.950163 9.98488 0.878471 10.6228L5.58746 9.72742V11.8731L0.540858 12.8326C0.258316 13.393 0.071551 14.0015 0 14.6394L5.28238 13.635C5.71239 13.555 6.08197 13.3275 6.32226 13.0145L7.29102 11.7294C7.39158 11.5965 7.45018 11.4359 7.45018 11.2633V9.37317L9.3129 9.01892V12.4266L15.2925 11.2891Z" fill="var(--fill-0, #3EFF00)"/>
</g>
</svg>
