<svg preserveAspectRatio="xMidYMid meet" width="100%" height="100%" overflow="visible" style="display: block;" viewBox="0 0 20.3957 20" fill="none" xmlns="http://www.w3.org/2000/svg">
<path id="Vector" fill-rule="evenodd" clip-rule="evenodd" d="M6.57516 3.89069e-07H13.8205C14.5661 -1.00394e-05 15.1835 -1.86786e-05 15.6893 0.0398217C16.2161 0.0813272 16.7012 0.170368 17.1639 0.391796C17.885 0.736805 18.4861 1.28992 18.8898 1.97981C19.1489 2.42258 19.2779 2.89856 19.363 3.42018C19.4447 3.92086 19.496 4.53618 19.5579 5.27916L20.2647 13.7614C20.3369 14.6271 20.3962 15.339 20.3957 15.9195C20.3951 16.5203 20.3327 17.0771 20.1011 17.6056C19.7437 18.4209 19.1246 19.0938 18.3417 19.5176C17.8343 19.7923 17.2846 19.9007 16.6859 19.9512C16.1074 20 15.3931 20 14.5245 20H5.87121C5.00259 20 4.28822 20 3.70977 19.9512C3.11102 19.9007 2.5614 19.7923 2.05395 19.5176C1.27107 19.0938 0.651945 18.4209 0.29461 17.6056C0.0629892 17.0771 0.00060123 16.5203 4.17001e-06 15.9195C-0.000572624 15.3389 0.0587627 14.6271 0.130914 13.7614L0.837767 5.27916C0.899673 4.53615 0.950935 3.92088 1.03264 3.42017C1.11776 2.89856 1.24677 2.42258 1.50586 1.97981C1.90956 1.28992 2.51069 0.736803 3.23172 0.391794C3.69448 0.170367 4.17953 0.0813257 4.70641 0.0398204C5.21216 -2.06381e-05 5.82959 -1.11119e-05 6.57516 3.89069e-07ZM7.19781 6C7.19781 5.44772 6.7501 5 6.19781 5C5.64553 5 5.19781 5.44772 5.19781 6C5.19781 7.32608 5.7246 8.59785 6.66228 9.53553C7.59996 10.4732 8.87173 11 10.1978 11C11.5239 11 12.7957 10.4732 13.7333 9.53553C14.671 8.59785 15.1978 7.32608 15.1978 6C15.1978 5.44772 14.7501 5 14.1978 5C13.6455 5 13.1978 5.44772 13.1978 6C13.1978 6.79565 12.8817 7.55871 12.3191 8.12132C11.7565 8.68393 10.9935 9 10.1978 9C9.40217 9 8.6391 8.68393 8.07649 8.12132C7.51389 7.55871 7.19781 6.79565 7.19781 6Z" fill="var(--fill-0, #166534)"/>
</svg>
