<svg preserveAspectRatio="none" width="100%" height="100%" overflow="visible" style="display: block;" viewBox="0 0 18.865 22.0001" fill="none" xmlns="http://www.w3.org/2000/svg">
<path id="Vector" d="M11.4248 1.12409C11.4798 0.683592 11.2379 0.259523 10.8307 0.0827545C10.4235 -0.0940143 9.94845 0.0188374 9.66426 0.359872L0.734794 11.0752C0.580479 11.2603 0.424177 11.4478 0.310376 11.6126C0.202751 11.7684 0.00624255 12.0748 0.000170897 12.4774C-0.00678005 12.9384 0.198631 13.377 0.557207 13.6667C0.870422 13.9198 1.23159 13.965 1.42019 13.9821C1.61962 14.0002 1.8637 14.0001 2.10469 14.0001L8.2997 14.0001L7.4402 20.876C7.38514 21.3165 7.62707 21.7406 8.03429 21.9174C8.4415 22.0941 8.91651 21.9813 9.2007 21.6402L18.1302 10.9249C18.2845 10.7398 18.4408 10.5523 18.5546 10.3875C18.6622 10.2317 18.8587 9.92533 18.8648 9.52267C18.8717 9.0617 18.6663 8.62314 18.3078 8.33338C17.9945 8.08027 17.6334 8.03509 17.4448 8.01802C17.2453 7.99996 17.0012 8.00001 16.7602 8.00005L10.5653 8.00006L11.4248 1.12409Z" fill="var(--fill-0, #030712)"/>
</svg>
