<svg preserveAspectRatio="none" width="100%" height="100%" overflow="visible" style="display: block;" viewBox="0 0 20.0003 20.7423" fill="none" xmlns="http://www.w3.org/2000/svg">
<path id="Vector" fill-rule="evenodd" clip-rule="evenodd" d="M9.47745 0.0695101C9.81975 -0.02317 10.1805 -0.02317 10.5228 0.0695101C10.9202 0.1771 11.2547 0.439757 11.5218 0.649387C13.8251 2.45777 16.1429 4.24787 18.4564 6.04327C18.833 6.33555 19.1648 6.59306 19.4121 6.92736C19.6291 7.22075 19.7907 7.55125 19.8891 7.90266C20.0012 8.30307 20.0007 8.72308 20.0002 9.19983C19.9976 11.6571 20.0001 14.1144 20.0001 16.5717C20.0002 17.0988 20.0002 17.5536 19.9696 17.9282C19.9373 18.3235 19.866 18.7167 19.6732 19.0951C19.3855 19.6596 18.9266 20.1185 18.3621 20.4062C17.9837 20.599 17.5905 20.6703 17.1952 20.7026C16.3936 20.7681 15.5807 20.7328 14.777 20.7331C14.6579 20.7332 14.5156 20.7332 14.3903 20.723C14.2451 20.7111 14.0371 20.6807 13.8192 20.5696C13.5369 20.4258 13.3074 20.1964 13.1636 19.9141C13.0526 19.6962 13.0221 19.4882 13.0103 19.343C13 19.2176 13.0001 19.0754 13.0001 18.9563L13.008 13.36C13.0088 12.7993 13.0092 12.5189 12.9003 12.3047C12.8045 12.1162 12.6515 11.963 12.4632 11.867C12.2492 11.7578 11.9688 11.7578 11.408 11.7578H8.60816C8.04883 11.7578 7.76916 11.7578 7.55541 11.8666C7.36738 11.9623 7.21443 12.115 7.11846 12.3029C7.00936 12.5165 7.00896 12.7962 7.00816 13.3555L7.00014 18.9563C7.00019 19.0754 7.00025 19.2177 6.99001 19.343C6.97814 19.4882 6.9477 19.6962 6.83665 19.9141C6.69284 20.1964 6.46337 20.4258 6.18113 20.5696C5.96318 20.6807 5.75519 20.7111 5.60997 20.723C5.48465 20.7332 5.3424 20.7332 5.22329 20.7331C4.4196 20.7328 3.60663 20.7681 2.80511 20.7026C2.40977 20.6703 2.01655 20.599 1.63817 20.4062C1.07368 20.1185 0.61474 19.6596 0.32712 19.0951C0.134326 18.7167 0.0630099 18.3235 0.0307089 17.9282C0.000105144 17.5536 0.000120643 17.0988 0.000138524 16.5717C0.000138846 14.1144 0.00272561 11.6571 6.89057e-05 9.19982C-0.000446317 8.72308 -0.000900149 8.30307 0.11118 7.90266C0.209542 7.55125 0.371188 7.22075 0.58818 6.92736C0.835438 6.59306 1.16725 6.33556 1.54388 6.04328C3.85732 4.24794 6.17524 2.45773 8.47852 0.649389C8.74553 0.439758 9.08008 0.1771 9.47745 0.0695101Z" fill="var(--fill-0, #9CA3AF)"/>
</svg>
