<svg preserveAspectRatio="xMidYMid meet" width="100%" height="100%" overflow="visible" style="display: block;" viewBox="0 0 22 22" fill="none" xmlns="http://www.w3.org/2000/svg">
<g id="Vector">
<path fill-rule="evenodd" clip-rule="evenodd" d="M6 8.5C6 5.73858 8.23858 3.5 11 3.5C13.7614 3.5 16 5.73858 16 8.5C16 11.2614 13.7614 13.5 11 13.5C8.23858 13.5 6 11.2614 6 8.5Z" fill="var(--fill-0, #6B7280)"/>
<path fill-rule="evenodd" clip-rule="evenodd" d="M11 0C4.92487 0 0 4.92487 0 11C0 17.0751 4.92487 22 11 22C17.0751 22 22 17.0751 22 11C22 4.92487 17.0751 0 11 0ZM2 11C2 6.02944 6.02944 2 11 2C15.9706 2 20 6.02944 20 11C20 13.2211 19.1954 15.2543 17.8618 16.824C16.9457 15.7114 15.5564 15 14 15H8.00005C6.44368 15 5.05439 15.7114 4.13825 16.8241C2.8046 15.2543 2 13.2211 2 11Z" fill="var(--fill-0, #6B7280)"/>
</g>
</svg>
