<svg preserveAspectRatio="none" width="100%" height="100%" overflow="visible" style="display: block;" viewBox="0 0 26 26" fill="none" xmlns="http://www.w3.org/2000/svg">
<g id="card-add">
<path id="Vector" d="M14.625 10.0208H2.16667C1.7225 10.0208 1.35417 9.6525 1.35417 9.20833C1.35417 8.76417 1.7225 8.39583 2.16667 8.39583H14.625C15.0692 8.39583 15.4375 8.76417 15.4375 9.20833C15.4375 9.6525 15.0692 10.0208 14.625 10.0208Z" fill="var(--fill-0, #030712)"/>
<path id="Vector_2" d="M8.66667 18.6875H6.5C6.05583 18.6875 5.6875 18.3192 5.6875 17.875C5.6875 17.4308 6.05583 17.0625 6.5 17.0625H8.66667C9.11083 17.0625 9.47917 17.4308 9.47917 17.875C9.47917 18.3192 9.11083 18.6875 8.66667 18.6875Z" fill="var(--fill-0, #030712)"/>
<path id="Vector_3" d="M15.7083 18.6875H11.375C10.9308 18.6875 10.5625 18.3192 10.5625 17.875C10.5625 17.4308 10.9308 17.0625 11.375 17.0625H15.7083C16.1525 17.0625 16.5208 17.4308 16.5208 17.875C16.5208 18.3192 16.1525 18.6875 15.7083 18.6875Z" fill="var(--fill-0, #030712)"/>
<path id="Vector_4" d="M19.0233 23.0208H6.97667C2.665 23.0208 1.35417 21.7208 1.35417 17.4525V8.5475C1.35417 4.27917 2.665 2.97917 6.97667 2.97917H14.625C15.0692 2.97917 15.4375 3.3475 15.4375 3.79167C15.4375 4.23583 15.0692 4.60417 14.625 4.60417H6.97667C3.575 4.60417 2.97917 5.18917 2.97917 8.5475V17.4417C2.97917 20.8 3.575 21.385 6.97667 21.385H19.0125C22.4142 21.385 23.01 20.8 23.01 17.4417V13.0217C23.01 12.5775 23.3783 12.2092 23.8225 12.2092C24.2667 12.2092 24.635 12.5775 24.635 13.0217V17.4417C24.6458 21.7208 23.335 23.0208 19.0233 23.0208Z" fill="var(--fill-0, #292D32)"/>
<path id="Vector_5" d="M23.8333 7.58333H17.875C17.4308 7.58333 17.0625 7.215 17.0625 6.77083C17.0625 6.32667 17.4308 5.95833 17.875 5.95833H23.8333C24.2775 5.95833 24.6458 6.32667 24.6458 6.77083C24.6458 7.215 24.2775 7.58333 23.8333 7.58333Z" fill="var(--fill-0, #292D32)"/>
<path id="Vector_6" d="M20.8542 10.5625C20.41 10.5625 20.0417 10.1942 20.0417 9.75V3.79167C20.0417 3.3475 20.41 2.97917 20.8542 2.97917C21.2983 2.97917 21.6667 3.3475 21.6667 3.79167V9.75C21.6667 10.1942 21.2983 10.5625 20.8542 10.5625Z" fill="var(--fill-0, #292D32)"/>
<g id="Vector_7" opacity="0">
</g>
</g>
</svg>
