<svg preserveAspectRatio="xMidYMid meet" width="100%" height="100%" overflow="visible" style="display: block;" viewBox="0 0 20 22" fill="none" xmlns="http://www.w3.org/2000/svg">
<path id="Vector" d="M18 10H2V16.2002C2 17.0566 2.00035 17.6388 2.03711 18.0889C2.07293 18.5273 2.13809 18.7518 2.21778 18.9082C2.40951 19.2845 2.71555 19.5905 3.0918 19.7822C3.2482 19.8619 3.47272 19.9271 3.91113 19.9629C4.36117 19.9997 4.94342 20 5.79981 20H14.2002C15.0566 20 15.6388 19.9997 16.0889 19.9629C16.5273 19.9271 16.7518 19.8619 16.9082 19.7822C17.2845 19.5905 17.5905 19.2845 17.7822 18.9082C17.8619 18.7518 17.9271 18.5273 17.9629 18.0889C17.9997 17.6388 18 17.0566 18 16.2002V10ZM13 5V4H7V5C7 5.55228 6.55229 6 6 6C5.44772 6 5 5.55228 5 5V4.00293C4.55454 4.00606 4.2047 4.01313 3.91113 4.03711C3.47272 4.07293 3.2482 4.13808 3.0918 4.21777C2.71555 4.40951 2.40951 4.71554 2.21778 5.0918C2.13809 5.2482 2.07293 5.47272 2.03711 5.91113C2.00035 6.36117 2 6.94341 2 7.7998V8H18V7.7998C18 6.94341 17.9997 6.36117 17.9629 5.91113C17.9271 5.47272 17.8619 5.2482 17.7822 5.0918C17.5905 4.71554 17.2845 4.40951 16.9082 4.21777C16.7518 4.13808 16.5273 4.07293 16.0889 4.03711C15.7953 4.01313 15.4455 4.00606 15 4.00293V5C15 5.55228 14.5523 6 14 6C13.4477 6 13 5.55228 13 5ZM20 16.2002C20 17.0237 20.001 17.7016 19.9561 18.252C19.9101 18.814 19.8117 19.3311 19.5645 19.8164C19.181 20.5689 18.5689 21.181 17.8164 21.5645C17.3311 21.8117 16.814 21.9101 16.252 21.9561C15.7016 22.001 15.0237 22 14.2002 22H5.79981C4.97632 22 4.29843 22.001 3.74805 21.9561C3.18599 21.9101 2.6689 21.8117 2.1836 21.5645C1.43109 21.181 0.819017 20.5689 0.435549 19.8164C0.188274 19.3311 0.0898762 18.814 0.0439473 18.252C-0.00102053 17.7016 1.82649e-06 17.0237 1.94927e-06 16.2002V7.7998C1.82679e-06 6.97631 -0.00102054 6.29843 0.0439473 5.74805C0.0898762 5.18599 0.188273 4.6689 0.435549 4.18359C0.819018 3.43109 1.43109 2.81902 2.1836 2.43555C2.6689 2.18827 3.18599 2.08987 3.74805 2.04395C4.10885 2.01447 4.52454 2.0062 5 2.00293V1C5 0.447715 5.44772 0 6 0C6.55229 0 7 0.447715 7 1V2H13V1C13 0.447715 13.4477 0 14 0C14.5523 0 15 0.447715 15 1V2.00293C15.4755 2.0062 15.8911 2.01447 16.252 2.04395C16.814 2.08987 17.3311 2.18827 17.8164 2.43555C18.5689 2.81902 19.181 3.43109 19.5645 4.18359C19.8117 4.6689 19.9101 5.18599 19.9561 5.74805C20.001 6.29843 20 6.97632 20 7.7998V16.2002Z" fill="var(--fill-0, #4B5563)"/>
</svg>
