<svg preserveAspectRatio="xMidYMid meet" width="100%" height="100%" overflow="visible" style="display: block;" viewBox="0 0 57.4011 24.5781" fill="none" xmlns="http://www.w3.org/2000/svg">
<g id="Group">
<path id="Vector" d="M22.0452 1.2168V17.1058C22.0452 17.3878 22.0452 17.6698 22.0452 17.9348C22.0982 19.5218 22.8742 20.3158 24.4792 20.3328C26.0482 20.3508 27.6002 20.3328 29.1522 20.3328C29.8402 20.3328 30.5102 20.3328 31.1982 20.3328C31.6742 20.3328 31.7272 20.2448 31.4802 19.8218C30.7752 18.5878 30.3162 17.2648 30.2982 15.8188C30.2802 12.8918 31.1972 10.3878 33.8072 8.7828C35.1822 7.9368 36.7172 7.8308 38.2862 7.9368C40.6672 8.0958 42.3422 9.3298 43.5412 11.2878C44.1052 12.2048 44.3352 13.2448 44.4932 14.2858C44.7932 16.1378 44.4222 17.8828 43.5762 19.5408C43.4702 19.7528 43.3472 19.9638 43.1882 20.2458C43.3642 20.2808 43.5582 20.3168 43.7352 20.3168C45.9222 20.3168 48.1082 20.3348 50.2952 20.3168C50.7182 20.2988 51.1592 20.2288 51.5652 20.0698C52.3412 19.8048 52.6052 19.1348 52.7472 18.4298C52.8182 18.0068 52.8532 17.5658 52.8352 17.1428C52.8352 15.2558 52.8532 13.3868 52.8352 11.4998C52.8352 11.0238 52.9762 10.7588 53.4352 10.5478C54.5642 10.0008 55.6572 9.3838 56.7682 8.8018C56.8912 8.7308 57.0332 8.6788 57.2262 8.5898C57.2442 8.7838 57.2442 8.9248 57.2442 9.0478C57.2442 12.0808 57.2792 15.1138 57.2262 18.1468C57.1912 20.0158 56.5912 21.6918 55.1452 22.9788C54.1402 23.8608 52.9762 24.4248 51.6362 24.4598C48.3032 24.5308 44.9882 24.5478 41.6552 24.5478C40.2972 24.5478 38.9392 24.3538 37.5812 24.3358C36.7872 24.3178 36.0122 24.4588 35.2182 24.5118C35.0242 24.5298 34.8302 24.5468 34.6362 24.5468C31.1972 24.5468 27.7592 24.5648 24.3202 24.5468C22.9272 24.5468 21.5872 24.2998 20.3882 23.4888C18.8362 22.4488 18.0072 21.0028 17.7782 19.1688C17.7072 18.5518 17.6722 17.9168 17.6902 17.2998C17.6902 12.8558 17.6902 8.4118 17.6902 3.9858C17.6902 3.7738 17.7782 3.4748 17.9192 3.3858C19.2412 2.6798 20.5992 1.9918 22.0452 1.2168ZM34.5302 15.0768C34.6712 17.2988 35.4292 18.8508 37.1752 19.8028C37.3342 19.8738 37.5102 19.8738 37.6512 19.8028C38.1802 19.4148 38.7802 19.0448 39.1852 18.5508C40.3672 17.0868 40.7542 15.4468 40.0142 13.6488C39.6792 12.7138 38.8322 12.0798 37.8452 11.9908C36.6282 11.8678 35.5352 12.1498 34.9882 13.3838C34.7242 14.0008 34.6362 14.6888 34.5302 15.0768Z" fill="var(--fill-0, white)"/>
<path id="Vector_2" d="M0 24.565C0.317 23.93 0.617001 23.348 0.899 22.784C1.234 22.149 1.569 21.514 1.887 20.862C2.01 20.527 2.345 20.333 2.698 20.368C4.373 20.386 6.066 20.386 7.759 20.368C9.134 20.368 9.822 19.698 9.875 18.34C9.981 15.871 8.993 13.931 7.036 12.468C6.736 12.239 6.419 12.045 6.066 11.78L7.512 9.29399C7.688 8.97699 7.882 8.67698 8.059 8.35898C8.182 8.14698 8.324 8.14698 8.5 8.27098C9.734 9.08198 10.898 9.98198 11.851 11.128C13.191 12.733 14.002 14.69 14.196 16.771C14.337 18.076 14.284 19.381 14.02 20.668C13.65 22.361 12.715 23.648 11.022 24.213C10.334 24.425 9.611 24.548 8.888 24.548C6.014 24.583 3.122 24.566 0.247 24.566C0.194 24.582 0.141 24.582 0 24.565Z" fill="var(--fill-0, white)"/>
<path id="Vector_3" d="M55.1441 0C56.5721 0 57.4011 0.864001 57.4011 2.31C57.4011 3.827 56.6251 4.62 55.1441 4.62C53.7331 4.62 52.7811 3.721 52.8341 2.257C52.8871 0.829001 53.6981 0 55.1441 0Z" fill="var(--fill-0, white)"/>
<path id="Vector_4" d="M5.96216 2.257C5.96216 0.864001 6.84416 0 8.27216 0C9.70016 0 10.5122 0.846001 10.5122 2.31C10.5122 3.879 9.73616 4.585 8.27216 4.602C6.80916 4.62 5.94516 3.738 5.96216 2.257Z" fill="var(--fill-0, white)"/>
<path id="Vector_5" d="M39.7315 2.83872C39.6965 3.13872 39.6605 3.43872 39.5905 3.73772C39.3965 4.37272 38.9905 4.84872 38.3035 4.97172C37.3685 5.14772 36.4165 5.20072 35.7115 4.40772C35.0065 3.61372 34.9885 2.62672 35.3585 1.70972C35.6755 0.898722 36.3985 0.475721 37.2805 0.527721C37.7915 0.527721 38.2855 0.650722 38.7445 0.862722C39.5205 1.25172 39.7495 1.99172 39.7315 2.83872Z" fill="var(--fill-0, white)"/>
</g>
</svg>
