<svg preserveAspectRatio="none" width="100%" height="100%" overflow="visible" style="display: block;" viewBox="0 0 27.0002 24.0002" fill="none" xmlns="http://www.w3.org/2000/svg">
<g id="Element">
<path id="Element_2" fill-rule="evenodd" clip-rule="evenodd" d="M0.00021056 0H27.0002V24H0.00021056V0Z" fill="var(--fill-0, #165D31)"/>
<g id="Element_3">
<path id="Element_4" fill-rule="evenodd" clip-rule="evenodd" d="M7.56163 6.78742C7.53621 7.36067 7.49808 8.36386 7.82537 8.46895C8.2162 8.52628 8.00013 7.47532 8.14312 7.28423C8.16854 7.18869 8.2162 7.18869 8.21938 7.30812V8.20143C8.21938 8.48806 8.34648 8.57405 8.4418 8.63137C8.54348 8.62182 8.61339 8.63137 8.65152 8.77468L8.70236 10.3177C8.70236 10.3177 8.9375 10.4228 8.95021 9.45303C8.95974 8.87978 8.87395 8.40685 8.92479 8.29698C8.92479 8.1871 9.02011 8.18233 9.08366 8.23487C9.18534 8.33997 9.22983 8.47373 9.3887 8.42596C9.63019 8.32086 9.77636 8.14411 9.77954 7.86704C9.77477 7.59475 9.73708 7.32605 9.66832 7.07404C9.68103 7.02627 9.62384 6.89729 9.63655 6.84952C9.67786 6.95462 9.74459 6.94506 9.7573 6.84952C9.71599 6.64888 9.65244 6.45302 9.55076 6.37181C9.46496 6.25716 9.33786 6.27627 9.29656 6.51512C9.27114 6.78742 9.36011 7.10748 9.49038 7.375C9.51898 7.47532 9.55711 7.64729 9.54122 7.80016C9.47132 7.86226 9.40141 7.8336 9.34104 7.74284C9.34104 7.74284 9.15039 7.52787 9.15039 7.47532C9.20123 6.98806 9.15992 6.93073 9.13132 6.7922C9.11226 6.60589 9.05189 6.54379 9.00422 6.41958C8.95656 6.34315 8.89301 6.34315 8.86124 6.41958C8.77544 6.63933 8.81675 7.11226 8.87712 7.32723C8.92161 7.52309 8.98834 7.64729 8.95656 7.64729C8.93114 7.75717 8.87712 7.7285 8.83582 7.59952C8.78931 7.32808 8.76688 7.04859 8.76909 6.76831C8.7532 6.54856 8.73414 6.08041 8.63563 5.95621C8.57844 5.84156 8.49264 5.89888 8.46087 6.00398C8.45248 6.21739 8.45567 6.43147 8.4704 6.64411C8.53395 6.99761 8.55619 7.3129 8.58797 7.67118C8.5975 8.15366 8.40367 7.88137 8.41321 7.63774C8.45489 7.33145 8.45164 7.01519 8.40367 6.71099C8.3719 6.58678 8.33695 6.55812 8.25751 6.57723C8.19713 6.57723 8.04144 6.83041 7.99695 7.26035C7.99695 7.26035 7.95882 7.4801 7.94293 7.67596C7.92069 7.8957 7.82537 8.05812 7.75546 7.64729C7.69826 7.34634 7.66013 6.61544 7.56481 6.78742H7.56163Z" fill="var(--fill-0, white)"/>
<path id="Element_5" fill-rule="evenodd" clip-rule="evenodd" d="M8.62613 9.13186L7.60933 9.86753C7.61886 9.5188 8.08913 8.893 8.41324 8.88823C8.61978 8.893 8.56894 9.00765 8.62295 9.13186H8.62613Z" fill="var(--fill-0, white)"/>
<path id="Element_6" fill-rule="evenodd" clip-rule="evenodd" d="M8.44422 9.60956C7.9104 11.6876 9.69934 11.979 9.89953 9.69554C9.91859 9.6 9.99485 9.50924 10.0076 9.6621C9.96625 11.7306 8.62216 11.8691 8.39338 11.2194C8.33956 10.9959 8.31266 10.7597 8.31394 10.522C8.28217 10.1159 8.13918 10.2736 8.11694 10.6748C8.0947 10.8994 8.10105 10.9615 8.10105 11.1764C8.17096 12.8102 9.9027 12.108 10.1855 10.7608C10.3348 10.0156 10.1601 9.46624 10.2395 9.46624C10.4111 9.74331 10.6526 9.50446 10.7066 9.40892C10.7289 9.36115 10.7861 9.32771 10.8242 9.38981C10.9576 9.53312 11.1928 9.46624 11.2436 9.21306C11.2722 8.95987 11.2945 8.70191 11.3008 8.43917C11.1896 8.48694 11.1102 8.52038 11.1006 8.59204L11.0784 8.81178C11.0689 8.88344 10.9767 8.88344 10.9703 8.79268C10.929 8.50605 10.7575 8.47261 10.6526 8.9121C10.5859 8.99809 10.4588 9.0172 10.4461 8.88822C10.4619 8.59204 10.3825 8.55382 10.2236 8.69236L10.0711 6.96305C10.1347 6.96305 10.1982 7.03471 10.2586 6.92006C10.195 6.60955 10.052 5.97898 9.97261 5.9312C9.93766 5.86433 9.90588 5.90732 9.85504 5.92643C9.77242 5.96464 9.69616 6.06974 9.72158 6.27993C9.81691 7.17802 9.88046 7.86115 9.97896 8.76401C9.99485 8.86433 9.93766 9.00287 9.8614 8.98854C9.73429 8.85955 9.70252 8.59682 9.48009 8.60637C9.32122 8.60637 9.14328 8.86911 9.12103 9.11752C9.09244 9.31815 9.0829 9.53312 9.12103 9.7051C9.23225 9.90574 9.3657 9.88663 9.48327 9.84363C9.5786 9.78153 9.65803 9.63822 9.69299 9.67166C9.71523 9.71465 9.69616 10.1924 9.2386 10.5554C8.96216 10.7465 8.73973 10.7847 8.62216 10.4455C8.54908 10.2306 8.62852 9.42325 8.44422 9.60956Z" fill="var(--fill-0, white)"/>
<path id="Element_7" fill-rule="evenodd" clip-rule="evenodd" d="M10.7235 7.49828C10.8284 7.44096 11.3368 6.56197 11.3368 6.56197L11.2605 6.46643C11.2319 6.43299 11.2351 6.39478 11.2605 6.36134C11.3876 6.24669 11.3463 6.00783 11.2827 5.89318C11.2396 5.86156 11.1921 5.84553 11.1441 5.84636C11.0961 5.84719 11.0489 5.86486 11.0063 5.89796C10.9173 6.02694 10.8983 6.23236 10.9682 6.35656C11.0349 6.40433 11.1016 6.50943 11.0571 6.56675C10.8474 6.90115 10.2786 7.47917 10.3454 7.49828C10.3581 7.52695 10.7108 7.52695 10.7203 7.49828H10.7235ZM7.64131 10.6034C7.45066 11.062 7.43477 11.7451 7.53963 11.9505C7.59682 12.0461 7.68897 12.0891 7.7557 12.0556C7.87644 11.9792 7.93046 11.6113 7.90186 11.4824C7.86056 11.3868 7.82878 11.3725 7.78747 11.4489C7.70486 11.7069 7.6699 11.5301 7.66037 11.3868C7.65127 11.1441 7.65979 10.9006 7.68579 10.6607C7.70804 10.4601 7.68579 10.5174 7.64131 10.6034ZM15.8107 9.87249C15.6264 9.27058 15.369 8.67822 15.2896 8.4537C15.042 7.86518 14.7791 7.29149 14.5016 6.73395C14.3046 6.38045 14.8257 6.88204 14.438 6.17503L14.1552 5.81675C14.0917 5.74987 13.9391 5.62567 13.9137 5.8263C13.901 6.00783 13.9074 6.10337 13.9264 6.25146C13.9423 6.34701 14.0376 6.5142 14.0853 6.60975C14.7367 7.90694 15.3089 9.28995 15.7948 10.7419C15.8774 10.6798 15.8584 9.97281 15.8107 9.87249Z" fill="var(--fill-0, white)"/>
<path id="Element_8" fill-rule="evenodd" clip-rule="evenodd" d="M15.0002 11.8698C14.9621 11.9319 15.0892 12.1947 15.2545 12.1947C15.5277 12.1469 15.7692 11.9176 15.9916 11.3061C16.082 11.1027 16.1397 10.8705 16.16 10.6278C16.187 9.46813 16.1251 8.30764 15.9757 7.1692C15.9662 7.07365 15.9757 6.959 15.9821 6.93034C16.0012 6.8969 16.0615 6.93034 16.0933 6.84913C16.141 6.77747 15.9662 6.18034 15.8709 5.95582C15.8391 5.85072 15.8232 5.78384 15.766 5.96537C15.697 6.16567 15.6641 6.38969 15.6707 6.61505C15.801 7.97652 15.8423 9.16602 15.9249 10.5275C15.9344 10.6612 15.9217 10.8523 15.8614 10.9288C15.6216 11.3301 15.3282 11.6508 15.0002 11.8698ZM18.7021 11.8651C18.505 12.037 18.505 12.2329 18.6639 12.2377C18.9372 12.1899 19.2613 12.1565 19.4837 11.6501C19.5623 11.4116 19.6077 11.1515 19.6172 10.8858C19.6572 9.74394 19.6071 8.59902 19.4678 7.47493C19.4615 7.37939 19.4329 7.15486 19.4424 7.1262C19.4615 7.05932 19.5505 7.13098 19.5822 7.05455C19.6267 6.98289 19.3503 6.44786 19.2518 6.21856C19.22 6.11346 19.2073 6.04658 19.1469 6.22811C19.0829 6.43026 19.0629 6.65758 19.0897 6.87779C19.2359 8.35869 19.3439 9.46697 19.3662 10.7759C19.3534 10.9001 19.3503 10.967 19.3121 11.1246C19.2263 11.287 19.131 11.4972 19.042 11.5976C18.9531 11.6931 18.7624 11.7886 18.7021 11.8651Z" fill="var(--fill-0, white)"/>
<path id="Element_9" fill-rule="evenodd" clip-rule="evenodd" d="M18.8481 10.5418C18.8481 10.193 18.8513 9.89687 18.845 9.63413C18.8429 9.41161 18.8105 9.1921 18.7496 8.98922C18.6924 8.79336 18.7274 8.63572 18.6988 8.42553C18.6734 8.21533 18.6797 7.90005 18.6416 7.65642C18.6289 7.56088 18.5971 7.25037 18.6066 7.21693C18.6225 7.15005 18.6829 7.21693 18.7147 7.14049C18.7592 7.06884 18.5558 6.28062 18.4541 6.05609C18.4192 5.95578 18.3493 5.98922 18.2698 6.15164C18.1904 6.26151 18.219 6.50514 18.2508 6.73922C18.4446 8.28221 18.5939 9.6819 18.5622 11.1485C18.5494 11.2727 18.8481 10.7759 18.8481 10.5418ZM17.396 8.63094C17.2721 8.62139 17.0147 8.26311 16.9384 8.05769C16.926 8.00749 16.9206 7.9539 16.9228 7.9004C16.925 7.84691 16.9347 7.7947 16.9512 7.74718C16.9988 7.69941 17.0687 7.65164 17.1227 7.69941C17.1227 7.69941 17.1768 7.81406 17.1672 7.82839C17.2308 7.87616 17.2625 7.85228 17.2689 7.80928C17.2721 7.73763 17.2498 7.69463 17.2498 7.6182C17.2784 7.39845 17.4405 7.36502 17.504 7.50355C17.5485 7.58954 17.5676 7.76629 17.5708 7.88572C17.5708 7.94782 17.5072 7.87616 17.4659 7.88572C17.431 7.90483 17.4214 7.9717 17.4182 8.02903C17.4119 8.18667 17.3992 8.43986 17.396 8.62616V8.63094ZM15.1145 10.9239C15.1463 10.4558 15.1018 9.6198 15.0987 9.34273C15.0817 8.63016 15.0424 7.91918 14.9811 7.21215C14.943 6.81087 15.0891 7.25514 15.0701 7.02106C15.0224 6.62457 14.8762 6.35227 14.7015 5.99399C14.6475 5.87457 14.6475 5.85068 14.5617 6.02266C14.4663 6.34272 14.5489 6.56724 14.5744 6.82043C14.6983 7.64209 14.7714 8.39686 14.8063 9.14687C14.8429 9.92597 14.8472 10.7077 14.819 11.4876C14.9144 11.4924 15.0605 11.2631 15.1145 10.9239Z" fill="var(--fill-0, white)"/>
<path id="Element_10" fill-rule="evenodd" clip-rule="evenodd" d="M19.271 10.1734C19.0517 9.61923 18.7245 9.02687 18.6355 8.80235C18.3408 8.18375 18.0314 7.58144 17.7076 6.99661C17.4376 6.56667 17.8348 6.92495 17.6568 6.59056C17.5075 6.34693 17.4662 6.26572 17.3359 6.11763C17.2723 6.05552 17.2342 5.9361 17.2088 6.14151C17.1986 6.31944 17.1965 6.49819 17.2024 6.67655C17.2024 6.75776 17.2596 6.9154 17.3105 7.01094C17.9682 8.2291 18.6895 9.47114 19.2678 11.0332C19.3504 10.9711 19.3218 10.2689 19.2678 10.1734H19.271Z" fill="var(--fill-0, white)"/>
<path id="Element_11" fill-rule="evenodd" clip-rule="evenodd" d="M9.37544 9.15616C9.35956 9.19906 9.3246 9.25149 9.33731 9.30392C9.35956 9.35158 9.3818 9.36588 9.41993 9.36588C9.45488 9.36588 9.50572 9.38018 9.51525 9.35158C9.53432 9.31821 9.54703 9.25625 9.53432 9.19429C9.49619 9.0513 9.39451 9.1085 9.37544 9.15616Z" fill="var(--fill-0, #165D31)"/>
<path id="Element_12" fill-rule="evenodd" clip-rule="evenodd" d="M16.735 17.171C17.0273 17.1901 17.218 17.1949 17.4754 17.2379L17.7804 17.1901C18.1172 17.1424 18.1299 17.9115 18.1299 17.9115C18.1299 18.3653 18.0124 18.3892 17.863 18.437C17.7772 18.4561 17.7359 18.3605 17.6882 18.265C17.6164 18.2996 17.5398 18.3062 17.4658 18.2841C17.3419 18.2745 17.2212 18.2745 17.1004 18.2602C16.9733 18.2459 16.9034 18.2841 16.7731 18.265C16.7477 18.3271 16.7096 18.4131 16.6333 18.3892C16.5698 18.3749 16.4903 18.1026 16.5126 17.8876C16.5602 17.7347 16.5443 17.7873 16.5443 17.7204C15.3496 17.6726 14.1453 17.5914 12.976 17.6153C12.0609 17.6201 11.1585 17.6774 10.2529 17.7347C9.76988 17.7252 9.40129 17.6105 9.14709 17.0516C9.17251 17.0516 10.38 17.1519 10.7327 17.1185C11.3841 17.1089 11.9814 17.0277 12.6455 16.9991C13.9547 17.0325 15.2543 17.0325 16.5634 17.171C16.4363 17.042 16.4363 16.7411 16.627 16.6647C16.6428 16.6455 16.6524 16.8127 16.681 16.808C16.8367 16.7936 16.7668 17.1089 16.735 17.171ZM11.473 6.3175C11.276 7.16782 11.5874 8.10413 11.8035 8.01336C11.9624 8.1089 12.0577 7.65986 12.1212 7.1726C12.1689 7.03406 12.2007 7.01973 12.2229 7.09139C12.2166 7.74107 12.2547 7.88916 12.3659 8.08502C12.6138 8.37164 12.8203 8.12324 12.8362 8.09935L13.0268 7.80795C13.0713 7.73629 13.1285 7.73629 13.1889 7.79362C13.2493 7.87483 13.2397 8.01336 13.3668 8.1089C13.4749 8.17578 13.7005 8.12801 13.7545 7.98948C13.8244 7.80317 13.8435 7.74107 13.8752 7.67419C13.9261 7.57387 14.0119 7.61687 14.0119 7.6503C14.0023 7.70763 13.9515 7.76018 13.9864 7.86527C14.05 7.93215 14.0627 7.88916 14.0977 7.87483C14.2248 7.77929 14.3201 7.36846 14.3201 7.36846C14.3233 7.21559 14.2661 7.22514 14.2279 7.26336L14.1294 7.36368C14.0659 7.37801 13.9483 7.44011 13.8879 7.30158C13.8276 7.13916 13.8276 6.90508 13.7831 6.73788C13.7831 6.72833 13.7005 6.47514 13.7767 6.46081C13.8149 6.47037 13.8943 6.50381 13.907 6.40349C13.9451 6.30317 13.8244 6.02132 13.7386 5.87801C13.6655 5.75858 13.5638 5.74425 13.4653 5.86845C13.3954 5.964 13.405 6.06909 13.3922 6.16941C13.3802 6.2413 13.3797 6.31647 13.3907 6.38872C13.4018 6.46098 13.4241 6.52826 13.4558 6.58502C13.5257 6.78565 13.6496 7.04839 13.6083 7.421C13.6083 7.421 13.5352 7.59298 13.4081 7.56909C13.3541 7.55476 13.2683 7.52132 13.2238 7.0054C13.1889 6.62323 13.2302 6.07865 13.1222 5.82546C13.0809 5.66782 13.0523 5.51973 12.9569 5.78247C12.9315 5.88756 12.8203 6.04521 12.8997 6.36527C12.9749 6.65369 12.9969 6.96728 12.9633 7.27292C12.9156 7.37801 12.9061 7.41145 12.8457 7.51177C12.7631 7.65508 12.671 7.61686 12.601 7.56432C12.5375 7.50222 12.4867 7.46878 12.4549 7.25381C12.4612 6.91941 12.4739 6.37005 12.4326 6.2554C12.3723 6.07387 12.2738 6.14075 12.2325 6.19807C12.0434 6.51376 11.9169 6.90259 11.867 7.32069C11.8098 7.59776 11.7495 7.51655 11.7082 7.40667C11.6065 7.26336 11.597 6.13119 11.473 6.3175Z" fill="var(--fill-0, white)"/>
<path id="Element_13" fill-rule="evenodd" clip-rule="evenodd" d="M12.0706 8.17135C12.1627 8.0758 12.1214 8.00892 12.2549 8.20956C12.4271 8.66778 12.5271 9.17932 12.5472 9.70479C12.5408 9.82899 12.598 9.90543 12.6266 9.87676C12.6393 9.59014 13.1064 9.18886 13.5354 9.13154C13.5989 9.10765 13.5672 8.92135 13.5767 8.82581C13.5513 8.46752 13.7102 8.14268 13.9326 8.1188C14.2376 8.18568 14.3393 8.42931 14.3457 8.79714C14.3107 9.5137 13.815 9.63313 13.5386 9.69046C13.4973 9.71434 13.4782 9.743 13.5386 9.77644L14.7015 9.786L14.7619 9.83377C14.7683 9.88154 14.7429 9.84332 14.6984 9.95797C14.6344 10.1269 14.5944 10.314 14.5808 10.5073C14.2344 10.6793 13.8754 10.7462 13.5132 10.8178C13.3861 10.9134 13.3225 11.0424 13.3479 11.1857C13.3924 11.3433 13.672 11.5057 13.672 11.5105C13.726 11.5583 13.7864 11.6777 13.6561 11.9214C13.0905 11.8831 12.6489 11.5201 12.4963 11.0089C12.4519 10.9564 12.401 11.0089 12.3692 11.0758C12.1468 11.5057 11.9308 11.8879 11.5526 12.0981C11.3302 12.1841 11.0982 12.0456 10.9902 11.8258C10.9171 11.6968 10.9203 11.5583 10.8949 11.5296C10.771 11.6108 9.72238 12.2796 9.85583 11.9643C10.11 11.5583 10.5549 11.2526 10.9425 10.8513C10.9711 10.7128 11.022 10.2542 11.1745 10.1061C11.184 10.1061 11.1523 10.3736 11.1554 10.4882C11.1554 10.5838 11.1491 10.6172 11.1618 10.5933C11.1904 10.5694 11.6607 10.0105 11.702 9.83855C11.7465 9.743 11.7115 9.4946 11.7115 9.48504C11.6225 9.14109 11.4986 9.11243 11.4541 8.94045C11.4128 8.71593 11.4319 8.45797 11.5177 8.38154C11.5939 8.28122 11.6829 8.29077 11.7687 8.40542C11.864 8.5344 11.9466 8.78759 11.9721 8.97389C11.9562 9.04555 11.845 8.92612 11.8132 8.95956C11.8743 9.06523 11.915 9.19412 11.9308 9.33218C11.9943 9.7239 11.9752 9.87676 11.9117 10.1299C11.702 10.794 11.4351 10.9898 11.1999 11.2382C11.1936 11.2382 11.1904 11.4054 11.2762 11.4962C11.308 11.544 11.4319 11.5678 11.5749 11.4962C11.8803 11.2411 12.1274 10.8531 12.2835 10.3831C12.3105 10.0255 12.2844 9.66332 12.2072 9.32262C12.115 9.00256 12.007 8.54873 12.007 8.53918C12.0038 8.33854 12.0134 8.27166 12.0706 8.17135ZM9.0265 6.32739C9.15996 6.42293 9.41416 6.37994 9.40145 6.0551L9.39509 5.90701C9.36967 5.81147 9.29341 5.83535 9.27753 5.93089C9.27117 5.96433 9.28706 6.01688 9.26799 6.03121C9.25528 6.05032 9.21398 6.04077 9.21398 5.95C9.21398 5.92134 9.20127 5.89268 9.19173 5.87357C9.18538 5.86402 9.17902 5.86402 9.16314 5.86402C9.14407 5.86402 9.14407 5.86879 9.13454 5.89268C9.13136 5.91656 9.12501 5.94045 9.12501 5.96911C9.12501 6.00255 9.1123 6.0121 9.09959 6.01688C9.08052 6.01688 9.0837 6.01688 9.06781 6.00733C9.06146 5.993 9.05192 5.98822 9.05192 5.95956L9.04239 5.88312C9.03603 5.86879 9.02332 5.85924 9.01061 5.85446C8.93753 5.85446 8.93118 5.98344 8.93753 6.03121C8.93118 6.04077 8.928 6.26529 9.0265 6.32739Z" fill="var(--fill-0, white)"/>
<path id="Element_14" fill-rule="evenodd" clip-rule="evenodd" d="M12.95 8.82257C13.0834 8.91811 13.4044 8.86557 13.3249 8.55506L13.3186 8.40219C13.29 8.30665 13.2169 8.33053 13.201 8.43085C13.1946 8.45952 13.2105 8.51206 13.1883 8.52639C13.1788 8.5455 13.1343 8.53595 13.1374 8.44996C13.1374 8.4213 13.1247 8.38786 13.1152 8.36875C13.1057 8.36397 13.1025 8.3592 13.0834 8.3592C13.0675 8.3592 13.0675 8.36875 13.058 8.39264C13.0517 8.41652 13.0485 8.44041 13.0485 8.46907C13.0453 8.49773 13.0358 8.50729 13.0199 8.51684C13.004 8.51684 13.0072 8.51684 12.9945 8.50251C12.9849 8.48818 12.9754 8.4834 12.9754 8.45952L12.9659 8.38308C12.9595 8.36875 12.9468 8.3592 12.9341 8.35442C12.861 8.35442 12.8547 8.47862 12.8578 8.52639C12.8547 8.53595 12.8515 8.76525 12.9532 8.82257H12.95ZM15.2378 7.79072C15.3712 7.88627 15.6223 7.84327 15.6127 7.52321L15.6064 7.37034C15.5778 7.2748 15.5047 7.29868 15.4888 7.39423C15.4825 7.42767 15.4983 7.48021 15.4761 7.49932C15.4666 7.51365 15.4221 7.5041 15.4253 7.41333C15.4253 7.38467 15.4125 7.35601 15.403 7.3369C15.3935 7.32735 15.3903 7.32735 15.3712 7.32735C15.3554 7.32735 15.3554 7.3369 15.3458 7.36079L15.3363 7.43244C15.3331 7.46588 15.3236 7.48021 15.3077 7.48021C15.2918 7.48021 15.295 7.48021 15.2823 7.47066C15.2727 7.45633 15.2632 7.45155 15.2632 7.42767C15.2632 7.40378 15.26 7.36556 15.2537 7.34646C15.2473 7.33212 15.2346 7.32735 15.2219 7.32257C15.1488 7.32257 15.1425 7.44677 15.1456 7.49454C15.1425 7.5041 15.1393 7.72862 15.241 7.79072H15.2378ZM16.423 10.3847C16.191 10.7812 16.2927 11.4356 16.3467 11.5789C16.423 11.8082 16.4834 11.9563 16.6327 12.071C16.7693 12.2191 16.8774 12.1283 16.9346 12.0232C17.0712 11.8082 17.0744 11.2589 17.1379 11.1538C17.1824 10.9532 17.2968 10.9866 17.3508 11.0774C17.4014 11.1852 17.4691 11.2723 17.5478 11.3305C17.6749 11.4977 17.8275 11.5312 17.98 11.3783C18.0817 11.2875 18.1484 11.1777 18.2088 10.9532C18.2723 10.6856 18.2405 9.44359 18.2247 8.70792L18.0912 7.68085C18.0912 7.6713 18.0753 7.19359 18.0594 7.08372C18.0594 7.03595 18.0499 7.02161 18.0817 7.02639C18.1166 7.07416 18.1198 7.07416 18.1452 7.08849C18.177 7.09805 18.2088 7.00728 18.1865 6.93085L17.8688 6.04231C17.8433 6.0041 17.8084 5.96588 17.7671 6.05187C17.7427 6.08504 17.7233 6.12561 17.7102 6.17091C17.697 6.21621 17.6904 6.26519 17.6908 6.31461C17.7004 6.5248 17.7226 6.73977 17.7321 6.94996L17.8592 8.02958C17.9005 8.79391 17.9101 9.42449 17.9514 10.1936C17.945 10.5184 17.8783 10.8003 17.8148 10.8433C17.8148 10.8433 17.7194 10.9245 17.6559 10.8337C17.6082 10.8051 17.4207 10.3608 17.4207 10.3608C17.3254 10.2318 17.2619 10.2653 17.1951 10.3608C17.0045 10.6379 16.9219 11.1442 16.7916 11.4977C16.7598 11.5789 16.6645 11.6411 16.5628 11.493C16.3023 10.9532 16.4548 10.1888 16.423 10.3847ZM15.2982 5.90855C15.4189 5.98021 15.5015 6.34805 15.4761 6.52957C15.4507 6.74454 15.3871 6.9834 15.3426 6.95474C15.2918 6.92607 15.3744 6.73499 15.3268 6.53435C15.3013 6.40059 15.1361 6.16174 15.1552 6.09486C15.1234 5.94677 15.2251 5.87989 15.2982 5.90378V5.90855Z" fill="var(--fill-0, white)"/>
<path id="Element_15" fill-rule="evenodd" clip-rule="evenodd" d="M16.8111 10.6032C16.8333 10.1637 16.792 9.89615 16.7857 9.63819C16.7793 9.38023 16.5918 7.41207 16.5537 7.22098C16.506 6.84837 16.7348 7.17321 16.7094 6.95347C16.63 6.68595 16.4361 6.28945 16.3758 6.05538C16.3376 5.95984 16.3535 5.86429 16.2709 6.03149C16.1998 6.32464 16.1747 6.63858 16.1978 6.94869C16.3948 8.49169 16.595 9.77195 16.5632 11.2385C16.6586 11.2385 16.7634 10.9184 16.8111 10.6032ZM18.8574 6.52831C18.9686 6.60952 19.0322 7.06812 19.0195 7.1971C18.9972 7.43595 18.94 7.69392 18.8987 7.66048C18.851 7.63181 18.9082 7.30697 18.886 7.20665C18.8606 7.06334 18.7112 6.80538 18.7271 6.72895C18.6953 6.56652 18.7907 6.49965 18.8574 6.52831ZM10.7325 9.77195C10.8374 9.83405 10.9009 10.1684 10.8914 10.264C10.8659 10.4407 10.8119 10.6318 10.7706 10.6032C10.7293 10.584 10.7802 10.3452 10.7611 10.2688C10.7516 10.092 10.6054 9.99647 10.6086 9.92004C10.5831 9.77672 10.6721 9.75284 10.7357 9.77195H10.7325Z" fill="var(--fill-0, white)"/>
<path id="Element_16" fill-rule="evenodd" clip-rule="evenodd" d="M13.2622 10.2779C13.3957 10.2875 13.4624 10.4499 13.3385 10.5168C13.2114 10.5789 13.0938 10.6314 13.0906 10.899C13.1383 11.2811 13.0271 11.1474 12.9635 11.0996C12.8873 11.0136 12.6712 10.813 12.6394 10.383C12.6362 10.2827 12.6902 10.192 12.776 10.192C12.9031 10.2445 13.0938 10.2493 13.2622 10.2779Z" fill="var(--fill-0, #165D31)"/>
<path id="Element_17" fill-rule="evenodd" clip-rule="evenodd" d="M7.94044 5.79766C8.09296 5.86454 8.10249 6.20849 8.09296 6.30881C8.07072 6.49033 8.0167 6.68619 7.97857 6.66231C7.93408 6.63842 7.97857 6.39002 7.95633 6.31358C7.93408 6.20849 7.80381 6.00785 7.81652 5.95052C7.78792 5.8311 7.88007 5.77377 7.94044 5.79766ZM10.9877 7.40276C10.8669 7.4983 10.8224 7.78492 10.8955 7.9569C10.9654 8.10021 11.0735 8.04766 11.0862 8.04766C11.2037 8.06677 11.2737 7.71804 11.2737 7.71804C11.2737 7.71804 11.2768 7.6225 11.1402 7.80881C11.0798 7.82314 11.0766 7.7897 11.0608 7.74193C11.0462 7.65098 11.0518 7.55539 11.0766 7.46964C11.0989 7.38365 11.0544 7.34543 10.9877 7.40276ZM11.8774 5.6639C11.8138 5.726 11.6963 5.91231 11.6931 6.1225C11.6899 6.24193 11.674 6.24193 11.7249 6.31358C11.7662 6.39957 11.8011 6.39479 11.8774 6.33269C11.8964 6.31471 11.9127 6.29098 11.9253 6.26302C11.9379 6.23506 11.9464 6.20348 11.9505 6.17027C11.9695 6.03651 11.8551 6.23715 11.8424 6.08428C11.817 5.94097 11.8901 5.88365 11.96 5.74989C11.96 5.65435 11.96 5.59224 11.8742 5.6639H11.8774ZM12.5891 5.85498C12.5611 6.02893 12.5441 6.20647 12.5383 6.38524C12.5192 6.519 12.6336 6.57632 12.6813 6.40435C12.7576 6.09384 12.7576 5.96008 12.7639 5.8311C12.7417 5.62568 12.6495 5.63046 12.5891 5.85498ZM17.1012 9.30881C17.1139 9.28493 17.7367 8.62091 17.7367 8.62091C17.8003 8.58747 17.7844 8.96486 17.7558 8.96009C17.5626 9.23993 17.3405 9.47066 17.098 9.64321C17.0663 9.67665 17.0377 9.39002 17.098 9.30881H17.1012ZM17.6636 9.29926C17.7748 9.38047 17.8193 9.86295 17.8066 9.99193C17.8066 10.2499 17.7018 10.4505 17.6573 10.4219C17.6128 10.3884 17.6636 10.1018 17.6414 10.0015C17.616 9.85818 17.5238 9.59544 17.5397 9.519C17.5079 9.35658 17.5969 9.2706 17.6668 9.29926H17.6636ZM13.9777 11.3725C14.0293 11.2821 14.0892 11.2032 14.1557 11.1384C14.2192 11.0907 14.2764 11.1767 14.2732 11.1719C14.2828 11.2674 14.2351 11.3486 14.251 11.4728C14.2637 11.5206 14.2732 11.5779 14.3336 11.5588C14.4321 11.4394 14.5243 11.4298 14.6196 11.4251C14.699 11.4298 14.7022 11.6257 14.6514 11.6257C14.4702 11.683 14.3908 11.7595 14.2605 11.8311C14.197 11.8884 14.1461 11.8168 14.1461 11.812C14.1461 11.8072 14.1112 11.7595 14.1334 11.6353C14.1398 11.5397 14.1144 11.4824 14.0572 11.4919C14.019 11.5302 13.9809 11.5493 13.9618 11.4776C13.9523 11.4298 13.9491 11.4012 13.9777 11.3725ZM18.3182 11.6305C18.3436 11.6782 18.3627 11.726 18.315 11.812L18.1975 11.9649C18.1784 12.0126 18.1657 12.0986 18.2292 12.1225C18.3436 12.1703 18.6105 11.9075 18.6105 11.9028C18.655 11.855 18.6423 11.7595 18.636 11.7595C18.6105 11.7165 18.5533 11.7451 18.5152 11.7356C18.4961 11.7356 18.4358 11.726 18.4644 11.64C18.4857 11.5978 18.5028 11.5511 18.5152 11.5015C18.5311 11.4442 18.5152 11.406 18.4517 11.3725C18.3849 11.3534 18.3563 11.363 18.2833 11.3725C18.2451 11.3821 18.2324 11.4107 18.2229 11.4824C18.2261 11.5923 18.2705 11.5875 18.3182 11.6257V11.6305Z" fill="var(--fill-0, white)"/>
<path id="Element_18" fill-rule="evenodd" clip-rule="evenodd" d="M13.9995 8.9174C13.9836 8.96517 13.9264 8.96517 13.8724 8.9174C13.8183 8.86963 13.7866 8.79319 13.8056 8.7502C13.8247 8.7072 13.8787 8.7072 13.9327 8.7502C13.9867 8.79319 14.0153 8.8744 13.9995 8.9174ZM11.1715 6.35688C11.1397 6.37121 11.0952 6.32822 11.0761 6.26134C11.0571 6.19446 11.0666 6.13714 11.0984 6.1228C11.1302 6.10847 11.1715 6.15624 11.1937 6.21835C11.2159 6.28045 11.2032 6.34733 11.1683 6.36166L11.1715 6.35688Z" fill="var(--fill-0, #165D31)"/>
<path id="Element_19" fill-rule="evenodd" clip-rule="evenodd" d="M16.7669 17.7696C17.0656 17.7887 17.3452 17.7696 17.6407 17.7935C17.6947 17.865 17.6566 18.0318 17.6216 18.0223L17.3738 18.008C17.3706 17.865 17.1291 17.8888 17.1355 18.0127C17.0052 18.0366 16.8876 18.008 16.7542 17.9984C16.716 17.9269 16.7224 17.7982 16.7669 17.7696Z" fill="var(--fill-0, #165D31)"/>
</g>
</g>
</svg>
