<svg preserveAspectRatio="none" width="100%" height="100%" overflow="visible" style="display: block;" viewBox="0 0 12.6667 14.6667" fill="none" xmlns="http://www.w3.org/2000/svg">
<path id="Vector" d="M11.3333 8.33333C11.3333 5.57191 9.09476 3.33333 6.33333 3.33333C3.57191 3.33333 1.33333 5.57191 1.33333 8.33333C1.33333 11.0948 3.57191 13.3333 6.33333 13.3333C9.09476 13.3333 11.3333 11.0948 11.3333 8.33333ZM5.66667 5.66667C5.66667 5.29848 5.96514 5 6.33333 5C6.70152 5 7 5.29848 7 5.66667V7.95573L8.3431 8.76172C8.65874 8.95118 8.76103 9.36074 8.57161 9.67643C8.38216 9.99208 7.97259 10.0944 7.6569 9.90495L5.99023 8.90495C5.78949 8.78445 5.66667 8.56747 5.66667 8.33333V5.66667ZM1.30924 1.58984C1.56956 1.32958 1.99161 1.32963 2.25195 1.58984C2.51229 1.85018 2.51226 2.2722 2.25195 2.53255L1.25195 3.53255C0.991604 3.7929 0.569594 3.7929 0.309245 3.53255C0.0490173 3.27219 0.0489359 2.85015 0.309245 2.58984L1.30924 1.58984ZM10.4147 1.58984C10.6588 1.34589 11.0448 1.33077 11.3066 1.54427L11.3574 1.58984L12.3574 2.58984C12.6177 2.85015 12.6176 3.27219 12.3574 3.53255C12.0971 3.7929 11.6751 3.7929 11.4147 3.53255L10.4147 2.53255C10.1544 2.2722 10.1544 1.85018 10.4147 1.58984ZM12.6667 8.33333C12.6667 11.8311 9.83114 14.6667 6.33333 14.6667C2.83553 14.6667 0 11.8311 0 8.33333C0 5.06068 2.48222 2.36763 5.66667 2.03451V1.33333H5C4.63181 1.33333 4.33333 1.03486 4.33333 0.666667C4.33333 0.298477 4.63181 0 5 0H7.66667C8.03486 0 8.33333 0.298477 8.33333 0.666667C8.33333 1.03486 8.03486 1.33333 7.66667 1.33333H7V2.03451C10.1845 2.36763 12.6667 5.06068 12.6667 8.33333Z" fill="var(--fill-0, #4B5563)"/>
</svg>
