<svg preserveAspectRatio="xMidYMid meet" width="100%" height="100%" overflow="visible" style="display: block;" viewBox="0 0 35.2002 11.8179" fill="none" xmlns="http://www.w3.org/2000/svg">
<g id="Group 32762">
<path id="Vector" d="M12.6148 11.8008H15.4638L17.295 0.406966H14.2428L12.6148 11.8008Z" fill="var(--fill-0, #1565C0)"/>
<path id="Vector_2" d="M10.1735 0.20315L7.52839 8.34168L7.02899 6.04928C5.60486 2.59015 3.16286 1.16602 3.16286 1.16602L5.69726 11.5969H8.74939L13.0225 0.202416H10.1735V0.20315ZM32.9619 0.20315H29.9097L25.2296 11.5977H28.0779L28.688 9.96968H32.3503L32.7573 11.5977H35.2L32.9619 0.20315ZM29.2996 7.93468L30.9276 3.66228L31.7416 7.93468H29.2996ZM21.1603 3.45842C21.1603 2.84828 21.5673 2.23742 22.9915 2.23742C24.0086 2.23742 25.0265 3.05142 25.0265 3.05142L25.6366 0.61015C25.6366 0.61015 24.2125 1.62795e-05 22.9915 1.62795e-05C19.9393 1.62795e-05 18.5152 1.62802 18.5152 3.45915C18.5152 7.12142 22.5845 6.51128 22.5845 8.34242C22.5845 8.74942 22.3813 9.35955 20.7533 9.35955C19.1253 9.35955 17.9051 8.74942 17.9051 8.74942L17.4981 11.1907C17.4981 11.1907 18.5152 11.8008 20.5502 11.8008C22.3813 12.004 25.2303 10.3767 25.2303 7.93468C25.2303 5.08642 21.1603 4.88328 21.1603 3.45842Z" fill="var(--fill-0, #1565C0)"/>
<path id="Vector_3" d="M7.1214 6.5105L6.10427 1.4241C6.10427 1.4241 5.69727 0.406966 4.47627 0.406966C3.25527 0.406966 0 0.406966 0 0.406966C0 0.406966 5.9004 2.2381 7.1214 6.5105Z" fill="var(--fill-0, #FF9800)"/>
</g>
</svg>
